<svg height="512pt" viewBox="0 0 512 512" width="512pt" xmlns="http://www.w3.org/2000/svg"><path d="m512 256c0 141.386719-114.613281 256-256 256s-256-114.613281-256-256 114.613281-256 256-256 256 114.613281 256 256zm0 0" fill="#dbdbdb"/><g fill="#afafaf"><path d="m274.050781 454.246094c0 19.730468 31.253907 36.28125 73.488281 40.898437 38.152344-14.609375 71.910157-38.085937 98.765626-67.917969-17.867188-9.269531-44.765626-15.160156-74.824219-15.160156-53.804688 0-97.429688 18.878906-97.429688 42.179688zm0 0"/><path d="m172.050781 217.863281c0-9.5625-17.90625-17.3125-39.992187-17.3125-22.082032 0-39.988282 7.75-39.988282 17.3125s17.90625 17.3125 39.988282 17.3125c22.085937 0 39.992187-7.75 39.992187-17.3125zm0 0"/><path d="m158.160156 225.40625c3.949219 0 7.203125-3.148438 7.308594-7.117188.105469-4.039062-3.078125-7.402343-7.117188-7.507812-7.667968-.203125-14.953124-.230469-21.066406-.230469-4.039062 0-7.316406 3.273438-7.316406 7.3125 0 4.039063 3.277344 7.3125 7.316406 7.3125 6.019532 0 13.179688.027344 20.675782.230469zm0 0"/><path d="m233.640625 457.890625c-14.078125-1.433594-27.714844-3.257813-40.53125-5.429687-3.984375-.671876-6.667969-4.449219-5.992187-8.429688.671874-3.984375 4.453124-6.667969 8.429687-5.992188 12.5 2.113282 25.816406 3.894532 39.574219 5.296876 4.019531.40625 6.949218 3.996093 6.539062 8.015624-.386718 3.769532-3.5625 6.574219-7.269531 6.574219-.246094 0-.496094-.011719-.75-.035156zm-80.691406-14.011719c-14.472657-3.84375-27.675781-8.304687-39.242188-13.265625-3.710937-1.589843-5.429687-5.890625-3.835937-9.601562 1.589844-3.714844 5.890625-5.433594 9.605468-3.839844 10.910157 4.679687 23.433594 8.910156 37.226563 12.566406 3.902344 1.039063 6.226563 5.042969 5.191406 8.945313-.871093 3.277344-3.828125 5.441406-7.066406 5.441406-.617187 0-1.25-.082031-1.878906-.246094zm-75.730469-34.484375c-12.652344-10.210937-21.460938-21.941406-26.175781-34.871093-1.386719-3.792969.566406-7.992188 4.363281-9.378907 3.792969-1.386719 7.992188.570313 9.378906 4.363281 3.792969 10.394532 11.066406 19.984376 21.621094 28.503907 3.140625 2.535156 3.632812 7.140625 1.097656 10.285156-1.445312 1.789063-3.5625 2.71875-5.695312 2.71875-1.613282 0-3.238282-.53125-4.589844-1.621094zm-22.195312-69.894531c-3.4375-2.125-4.5-6.632812-2.375-10.066406 6.65625-10.757813 18.992187-18.535156 37.714843-23.777344 3.886719-1.089844 7.925781 1.179688 9.015625 5.070312 1.089844 3.890626-1.179687 7.925782-5.070312 9.015626-15.027344 4.207031-24.585938 9.894531-29.21875 17.386718-1.382813 2.238282-3.777344 3.46875-6.226563 3.46875-1.3125 0-2.640625-.355468-3.839843-1.097656zm69.785156-33.050781c-.488282-4.011719 2.367187-7.65625 6.378906-8.144531 5.898438-.714844 11.972656-1.382813 17.851562-2.027344 7.359376-.808594 14.96875-1.644532 22.246094-2.582032 4.003906-.515624 7.675782 2.3125 8.191406 6.320313.515626 4.003906-2.3125 7.671875-6.320312 8.1875-7.414062.957031-15.09375 1.800781-22.523438 2.617187-5.832031.640626-11.863281 1.300782-17.679687 2.007813-.300781.035156-.597656.054687-.894531.054687-3.644532 0-6.796875-2.722656-7.25-6.433593zm80.023437-11.121094c-1.214843-3.851563.921875-7.960937 4.773438-9.175781 14.488281-4.574219 23.472656-10.746094 27.460937-18.875 1.78125-3.625 6.164063-5.121094 9.789063-3.339844 3.628906 1.777344 5.125 6.160156 3.34375 9.789062-5.84375 11.90625-17.683594 20.535157-36.191407 26.375-.730468.230469-1.472656.339844-2.203124.339844-3.105469 0-5.988282-1.996094-6.972657-5.113281zm26.832031-54.921875c-7.082031-5.3125-18.6875-9.285156-34.492187-11.804688-3.988281-.636718-6.707031-4.386718-6.070313-8.375.636719-3.988281 4.382813-6.707031 8.375-6.074218 18.4375 2.941406 31.839844 7.703125 40.96875 14.558594 3.230469 2.425781 3.882813 7.007812 1.457032 10.242187-1.4375 1.914063-3.632813 2.921875-5.855469 2.921875-1.527344 0-3.066406-.476562-4.382813-1.46875zm0 0"/><path d="m355.8125 461.5625h20.894531c4.039063 0 7.316407-3.277344 7.316407-7.316406 0-4.039063-3.277344-7.3125-7.316407-7.3125h-20.894531c-4.039062 0-7.3125 3.273437-7.3125 7.3125 0 4.039062 3.273438 7.316406 7.3125 7.316406zm0 0"/></g><path d="m485.507812 239.871094c-22.667968-126.757813-205.382812-126.757813-228.050781 0-2.015625 11.285156-3.070312 22.902344-3.070312 34.769531 0 80.214844 48.136719 149.175781 117.097656 179.605469 68.957031-30.429688 117.097656-99.390625 117.097656-179.605469-.003906-11.863281-1.054687-23.484375-3.074219-34.769531zm0 0" fill="#ff616d"/><path d="m371.484375 454.246094c-68.960937-30.429688-117.097656-99.386719-117.097656-179.605469 0-11.863281 1.054687-23.484375 3.074219-34.769531 11.195312-62.613282 61.429687-94.292969 112.140624-95.039063-39.425781.976563-91.242187 32.644531-99.957031 95.039063-1.566406 11.285156-2.390625 22.902344-2.390625 34.769531 0 80.21875 50.429688 149.175781 104.230469 179.605469zm0 0" fill="#e53467"/><path d="m451.742188 261.128906c0 44.328125-35.933594 80.261719-80.257813 80.261719-44.328125 0-80.261719-35.933594-80.261719-80.261719 0-44.324218 35.933594-80.257812 80.261719-80.257812 44.324219 0 80.257813 35.933594 80.257813 80.257812zm0 0" fill="#e53467"/><path d="m434.535156 261.125c0 32.382812-24.410156 59.070312-55.832031 62.644531-2.371094.273438-4.777344.414063-7.21875.414063-34.820313 0-63.054687-28.234375-63.054687-63.054688 0-34.824218 28.234374-63.050781 63.054687-63.050781 2.441406 0 4.847656.140625 7.21875.414063 31.421875 3.574218 55.832031 30.253906 55.832031 62.632812zm0 0" fill="#e5e5e5"/><path d="m434.535156 261.125c0 32.382812-24.410156 59.070312-55.832031 62.644531-31.425781-3.574219-55.84375-30.261719-55.84375-62.644531 0-32.378906 24.417969-59.058594 55.84375-62.636719 31.421875 3.578125 55.832031 30.257813 55.832031 62.636719zm0 0" fill="#fcfcfc"/><path d="m248.429688 73.273438-105.886719-57.515626v115.03125zm0 0" fill="#ff616d"/><path d="m142.730469 11.457031v207.207031h-21.328125v-207.207031c0-.523437.035156-1.039062.109375-1.539062.746093-5.160157 5.1875-9.125 10.554687-9.125 2.734375 0 5.230469 1.027343 7.109375 2.722656 2.183594 1.949219 3.554688 4.785156 3.554688 7.941406zm0 0" fill="#fce065"/><path d="m135.621094 1.402344c-2.511719.886718-4.59375 2.691406-5.839844 5.007812-.808594 1.5-1.269531 3.214844-1.269531 5.046875v207.207031h-7.109375v-207.207031c0-.523437.035156-1.039062.109375-1.539062.746093-5.160157 5.1875-9.125 10.554687-9.125 1.246094 0 2.441406.214843 3.554688.609375zm0 0" fill="#f9a53f"/></svg>