<?xml version="1.0" encoding="iso-8859-1"?>
<!-- Generator: Adobe Illustrator 19.0.0, SVG Export Plug-In . SVG Version: 6.00 Build 0)  -->
<svg version="1.1" id="Layer_1" xmlns="http://www.w3.org/2000/svg" xmlns:xlink="http://www.w3.org/1999/xlink" x="0px" y="0px"
	 viewBox="0 0 512 512" style="enable-background:new 0 0 512 512;" xml:space="preserve">
<path style="fill:#5D9BEB;" d="M512,256.006C512,397.402,397.394,512.004,256.004,512C114.606,512.004,0,397.402,0,256.006
	C-0.007,114.61,114.606,0,256.004,0C397.394,0,512,114.614,512,256.006z"/>
<path style="fill:#4988DB;" d="M512,256.005c0-22.445-2.91-44.206-8.335-64.95c-0.087-0.041-0.183-0.055-0.267-0.11
	c-0.375-0.466-0.667-0.995-1.164-1.355c-0.098-0.07-89.414-89.259-89.515-89.323c-0.375-0.465-0.666-0.995-1.163-1.354
	c-1.76-1.27-4.021-1.626-6.071-0.922l-98.948,32.983L207.59,97.993c-0.668-0.221-1.358-0.323-2.049-0.332
	c-0.029-0.001-0.053-0.017-0.083-0.017c-0.03,0-0.054,0.016-0.083,0.017c-0.691,0.009-1.382,0.111-2.049,0.332l-101.081,33.694
	c-2.751,0.915-4.607,3.488-4.607,6.39v269.547c0,2.165,1.04,4.198,2.8,5.469c0.114,0.082,0.252,0.113,0.37,0.187
	c0.365,0.444,89.073,89.116,89.19,89.189c0.335,0.406,0.615,0.851,1.022,1.19c20.753,5.429,42.524,8.341,64.98,8.34
	C397.394,512.004,512,397.401,512,256.005z"/>
<path style="fill:#F4F6F9;" d="M411.558,98.915c-1.76-1.27-4.021-1.626-6.07-0.922l-98.948,32.982l-98.948-32.982
	c-0.667-0.221-1.358-0.323-2.049-0.332c-0.029,0-0.053-0.017-0.083-0.017c-0.03,0-0.054,0.016-0.083,0.017
	c-0.691,0.009-1.382,0.111-2.049,0.332l-101.081,33.694c-2.751,0.915-4.607,3.488-4.607,6.39v269.547c0,2.165,1.04,4.198,2.8,5.469
	c1.162,0.836,2.543,1.27,3.938,1.27c0.717,0,1.435-0.112,2.132-0.349l98.948-32.982l98.948,32.982
	c0.668,0.221,1.359,0.323,2.049,0.332c0.029,0,0.053,0.017,0.083,0.017c0.03,0,0.053-0.016,0.082-0.017
	c0.691-0.009,1.382-0.111,2.049-0.332l101.079-33.693c2.751-0.915,4.607-3.488,4.607-6.39V104.384
	C414.358,102.219,413.318,100.186,411.558,98.915z M299.802,263.504l-87.603-29.201V113.73l87.603,29.201V263.504z M198.721,234.303
	l-40.432,13.477v-53.812l40.432-11.655V234.303z M198.721,248.503v120.572l-40.432,13.475v-120.57L198.721,248.503z
	 M212.198,248.503l87.603,29.201v34.548l-37.892-15.422c-2.083-0.855-4.438-0.606-6.301,0.645c-1.862,1.257-2.978,3.349-2.978,5.594
	v79.484l-40.432-13.477L212.198,248.503L212.198,248.503z M266.108,313.085l33.693,13.713v71.479l-33.693-11.231L266.108,313.085
	L266.108,313.085z M313.279,210.773l40.432-13.667v52.921l-40.432,13.477V210.773z M367.188,192.55l33.694-11.389v53.141
	l-33.694,11.231V192.55z M400.881,166.935l-87.603,29.612v-53.615l87.603-29.197V166.935z M198.721,113.731v54.554l-49.037,14.133
	c-2.885,0.829-4.873,3.474-4.873,6.476v63.379l-33.693,11.231V142.933L198.721,113.731z M111.119,277.705l33.693-11.231v120.57
	l-33.693,11.23V277.705z M313.279,398.276V277.705l87.603-29.201v120.57L313.279,398.276z"/>
<g>
</g>
<g>
</g>
<g>
</g>
<g>
</g>
<g>
</g>
<g>
</g>
<g>
</g>
<g>
</g>
<g>
</g>
<g>
</g>
<g>
</g>
<g>
</g>
<g>
</g>
<g>
</g>
<g>
</g>
</svg>
