<?xml version="1.0" encoding="iso-8859-1"?>
<!-- Generator: Adobe Illustrator 19.0.0, SVG Export Plug-In . SVG Version: 6.00 Build 0)  -->
<svg version="1.1" id="Layer_1" xmlns="http://www.w3.org/2000/svg" xmlns:xlink="http://www.w3.org/1999/xlink" x="0px" y="0px"
	 viewBox="0 0 512 512" style="enable-background:new 0 0 512 512;" xml:space="preserve">
<path style="fill:#EB86BF;" d="M0,256.006C0,397.402,114.606,512.004,255.996,512C397.394,512.004,512,397.402,512,256.006
	C512.009,114.61,397.394,0,255.996,0C114.606,0,0,114.614,0,256.006z"/>
<path style="fill:#D670AD;" d="M512,256.005c0-8.241-0.426-16.381-1.187-24.422l-0.499-0.399c-0.241-0.256-0.371-0.594-0.65-0.816
	l-0.834-0.668c-0.241-0.257-83.246-83.247-83.246-83.247c-0.241-0.256-0.371-0.594-0.65-0.817l-74.667-59.733
	c-2.553-2.034-6.103-2.183-8.809-0.383L256,142.494L170.542,85.52c-2.713-1.801-6.256-1.651-8.809,0.383l-74.667,59.733
	c-1.772,1.415-2.8,3.563-2.8,5.83v268.8c0,2.372,1.168,4.526,3.018,5.919c0.42,0.564,61.863,62.004,62.434,62.434
	c0.14,0.188,0.338,0.322,0.494,0.494c32.252,14.658,68.045,22.889,105.783,22.886C397.394,512.004,512,397.401,512,256.005z"/>
<path style="fill:#F4F6F9;" d="M424.933,145.637l-74.667-59.733c-2.553-2.034-6.103-2.183-8.809-0.383L256,142.494L170.542,85.52
	c-2.713-1.801-6.256-1.651-8.809,0.383l-74.667,59.733c-1.772,1.415-2.8,3.563-2.8,5.83v268.8c0,2.869,1.648,5.487,4.229,6.731
	c2.596,1.239,5.666,0.893,7.904-0.9l70.401-56.321l85.057,56.704c2.509,1.669,5.775,1.669,8.284,0l85.057-56.704l70.401,56.321
	c1.349,1.078,3.004,1.636,4.667,1.636c1.101,0,2.209-0.244,3.237-0.736c2.581-1.244,4.229-3.861,4.229-6.731v-268.8
	C427.733,149.199,426.705,147.052,424.933,145.637z M158.933,356.943L99.2,404.731V155.054l59.733-47.785V356.943z M248.533,406.316
	l-74.667-49.779V105.685l74.667,49.777V406.316z M338.133,356.538l-74.667,49.779V155.462l74.667-49.777V356.538z M412.8,404.732
	l-59.733-47.788V107.269l59.733,47.785V404.732z"/>
<g>
</g>
<g>
</g>
<g>
</g>
<g>
</g>
<g>
</g>
<g>
</g>
<g>
</g>
<g>
</g>
<g>
</g>
<g>
</g>
<g>
</g>
<g>
</g>
<g>
</g>
<g>
</g>
<g>
</g>
</svg>
