<?xml version="1.0" encoding="iso-8859-1"?>
<!-- Generator: Adobe Illustrator 19.0.0, SVG Export Plug-In . SVG Version: 6.00 Build 0)  -->
<svg version="1.1" id="Layer_1" xmlns="http://www.w3.org/2000/svg" xmlns:xlink="http://www.w3.org/1999/xlink" x="0px" y="0px"
	 viewBox="0 0 512 512" style="enable-background:new 0 0 512 512;" xml:space="preserve">
<path style="fill:#FA6E51;" d="M0,256.006C0,397.402,114.606,512.004,255.996,512C397.394,512.004,512,397.402,512,256.006
	C512.009,114.61,397.394,0,255.996,0C114.606,0,0,114.614,0,256.006z"/>
<path style="fill:#E8573F;" d="M512,256.005c0.001-8.214-0.426-16.326-1.181-24.343c-0.045-0.037-0.066-0.095-0.115-0.128
	l-0.385-0.26c-0.379-0.405-0.633-0.91-1.101-1.226l-76.196-76.071c-0.379-0.405-0.634-0.91-1.102-1.227l-55.212-37.333
	c-1.242-0.838-2.7-1.283-4.188-1.283h-61.397c-0.049-0.038-0.105-0.067-0.155-0.105c-0.43-0.574-41.05-41.194-41.622-41.621
	c-1.361-1.82-3.429-3.074-5.879-3.074c-4.127,0-7.467,3.339-7.467,7.467v37.333H114.133c-3.142,0-5.95,1.969-7.022,4.922
	c-1.072,2.96-0.175,6.271,2.239,8.284l0.671,0.559c0.268,0.314,0.492,0.657,0.816,0.927l33.009,32.958l-34.495,28.745
	c-2.414,2.013-3.311,5.323-2.239,8.284c0.5,1.377,1.404,2.509,2.515,3.359c0.421,0.572,29.852,31.43,29.852,31.43
	c-1.488,0-2.946,0.445-4.186,1.284l-55.212,37.333c-2.049,1.385-3.282,3.703-3.282,6.182s1.232,4.798,3.281,6.183l0.385,0.26
	c0.379,0.405,142.704,142.704,142.704,142.704c0.057,0.061,0.107,0.126,0.166,0.185h-19.603c-4.127,0-7.467,3.34-7.467,7.467
	c0,2.449,1.254,4.518,3.073,5.879c0.429,0.573,69.293,69.437,69.866,69.866c0.193,0.258,0.45,0.444,0.669,0.669
	C404.817,504.409,512,392.743,512,256.005z"/>
<path style="fill:#F4F6F9;" d="M431.919,152.75l-55.213-37.333c-1.24-0.838-2.698-1.283-4.186-1.283H270.933V76.8
	c0-4.127-3.34-7.467-7.467-7.467c-4.127,0-7.467,3.34-7.467,7.467v37.333H114.133c-3.142,0-5.95,1.969-7.022,4.922
	c-1.072,2.96-0.175,6.271,2.239,8.284l37.916,31.595l-37.917,31.595c-2.414,2.013-3.311,5.323-2.239,8.284
	c1.072,2.954,3.879,4.922,7.022,4.922h141.867V233.6H139.479c-1.488,0-2.946,0.445-4.186,1.283l-55.213,37.333
	c-2.049,1.386-3.281,3.705-3.281,6.183s1.232,4.798,3.281,6.183l55.213,37.333c1.239,0.838,2.698,1.283,4.186,1.283H256v104.533
	h-52.267c-4.127,0-7.467,3.34-7.467,7.467s3.34,7.467,7.467,7.467H323.2c4.127,0,7.467-3.34,7.467-7.467s-3.34-7.467-7.467-7.467
	h-52.267V323.2h126.933c3.142,0,5.95-1.969,7.022-4.922c1.072-2.96,0.175-6.271-2.239-8.284L364.733,278.4l37.917-31.595
	c2.414-2.013,3.311-5.323,2.239-8.284c-1.072-2.953-3.879-4.922-7.022-4.922H270.933v-29.867h101.587
	c1.488,0,2.946-0.445,4.186-1.283l55.213-37.333c2.049-1.386,3.281-3.705,3.281-6.183C435.2,156.454,433.968,154.135,431.919,152.75
	z M348.284,272.661c-1.699,1.422-2.684,3.522-2.684,5.739c0,2.217,0.985,4.317,2.684,5.739l28.962,24.128H141.769L97.596,278.4
	l44.173-29.867h235.477L348.284,272.661z M370.232,188.8H134.754l28.962-24.128c1.699-1.422,2.684-3.522,2.684-5.739
	c0-2.217-0.985-4.317-2.684-5.739l-28.962-24.128h235.477l44.173,29.867L370.232,188.8z"/>
<g>
</g>
<g>
</g>
<g>
</g>
<g>
</g>
<g>
</g>
<g>
</g>
<g>
</g>
<g>
</g>
<g>
</g>
<g>
</g>
<g>
</g>
<g>
</g>
<g>
</g>
<g>
</g>
<g>
</g>
</svg>
