<?xml version="1.0" encoding="iso-8859-1"?>
<!-- Generator: Adobe Illustrator 19.0.0, SVG Export Plug-In . SVG Version: 6.00 Build 0)  -->
<svg version="1.1" id="Layer_1" xmlns="http://www.w3.org/2000/svg" xmlns:xlink="http://www.w3.org/1999/xlink" x="0px" y="0px"
	 viewBox="0 0 512.001 512.001" style="enable-background:new 0 0 512.001 512.001;" xml:space="preserve">
<path style="fill:#47CEAC;" d="M0.001,256.006c0,141.395,114.606,255.998,255.996,255.994
	c141.398,0.004,256.004-114.598,256.004-255.994C512.009,114.61,397.395,0,255.996,0C114.606,0,0.001,114.614,0.001,256.006z"/>
<path style="fill:#36BB9A;" d="M512.001,256.006c0.001-22.188-2.822-43.713-8.127-64.242c-0.804-0.828-88.634-88.694-89.966-89.899
	c-9.854-10.867-24.126-17.715-39.983-17.715c-29.66,0-53.791,23.948-53.791,53.39c0,32.277,25.538,66.324,39.776,82.813
	c-8.497,2.035-14.415,6.16-15.918,11.877c-0.97,3.698-0.066,8.638,5.053,12.028c0.854,1.373,9.531,10.093,11.055,11.165
	c-4.796,6.388-30.527,15.589-44.947,20.747c-29.169,10.431-54.357,19.434-55.657,34.871c-0.564,6.701,3.575,12.01,8.031,15.781
	c1.161,1.404,21.12,21.329,22.258,22.334c-1.954,8.71-15.21,17.892-33.244,26.541c-0.783-0.801-77.155-77.207-78.486-78.411
	c-9.854-10.867-24.126-17.714-39.982-17.714c-29.66,0-53.791,23.948-53.791,53.39c0,40.678,40.572,84.211,47.927,91.77
	c0.589,0.913,1.375,1.683,2.304,2.238c0.585,0.618,80.977,81.031,81.377,81.442c0.116,0.179,0.245,0.349,0.377,0.517
	c12.948,2.017,26.217,3.072,39.731,3.072C397.395,512.004,512.001,397.402,512.001,256.006z"/>
<g>
	<path style="fill:#F4F6F9;" d="M160.497,332.962c0-12.293-10.059-22.289-22.423-22.289s-22.423,9.996-22.423,22.289
		s10.059,22.289,22.423,22.289C150.438,355.25,160.497,345.254,160.497,332.962z M129.126,332.962c0-4.857,4.014-8.812,8.946-8.812
		s8.946,3.955,8.946,8.812s-4.014,8.812-8.946,8.812C133.14,341.773,129.126,337.819,129.126,332.962z"/>
	<path style="fill:#F4F6F9;" d="M396.349,137.54c0-12.292-10.059-22.289-22.423-22.289s-22.423,9.996-22.423,22.289
		c0,12.293,10.059,22.289,22.423,22.289S396.349,149.834,396.349,137.54z M364.979,137.54c0-4.857,4.014-8.812,8.946-8.812
		c4.932,0,8.946,3.955,8.946,8.812c0,4.857-4.014,8.812-8.946,8.812C368.993,146.352,364.979,142.397,364.979,137.54z"/>
	<path style="fill:#F4F6F9;" d="M373.782,232.373c0.049,0.001,0.095,0.028,0.144,0.028c1.714,0,3.431-0.652,4.745-1.954
		c2.004-1.987,49.05-49.132,49.05-92.907c0-29.442-24.131-53.39-53.794-53.39c-29.66,0-53.791,23.948-53.791,53.39
		c0,32.277,25.538,66.324,39.776,82.813c-8.497,2.035-14.415,6.16-15.918,11.877c-1.053,4.014,0.089,9.495,6.449,12.865
		c8.697,4.607,10.496,7.792,10.444,8.548c-0.458,6.337-29.909,16.866-45.732,22.526c-29.169,10.431-54.357,19.433-55.657,34.871
		c-0.983,11.675,12.309,19.131,16.675,21.579c6.85,3.843,14.797,9.74,13.738,15.985c-3.952,23.318-90.349,50.202-132.813,61.159
		c14.499-17.907,34.77-48.039,34.77-76.802c0-29.442-24.131-53.39-53.794-53.39c-29.66,0-53.791,23.948-53.791,53.39
		c0,40.678,40.572,84.211,47.927,91.77c1.06,1.644,2.741,2.853,4.79,3.099c0.082,0.013,0.181,0.019,0.303,0.019
		c0.155,0,0.435-0.033,0.652-0.049c0.039,0.001,0.078,0.023,0.118,0.023c0.092,0,0.177-0.048,0.269-0.052
		c15.969-1.623,151.427-34.941,164.059-73.698c2.79-8.555,1.648-21.269-19.634-33.206c-9.98-5.6-9.841-8.667-9.838-8.693
		c0.57-6.798,30.62-17.545,46.763-23.315c29.919-10.693,53.551-19.143,54.637-34.246c0.707-9.825-9.009-16.583-15.014-20.038
		c2.55-1.138,7.131-2.396,14.317-2.172C373.684,232.402,373.729,232.374,373.782,232.373z M138.072,293.05
		c22.229,0,40.317,17.906,40.317,39.913c0,30.62-28.745,65.491-40.32,78.291c-11.579-12.786-40.31-47.618-40.31-78.291
		C97.758,310.956,115.843,293.05,138.072,293.05z M373.926,97.628c22.229,0,40.317,17.906,40.317,39.913
		c0,30.62-28.745,65.491-40.32,78.291c-11.579-12.786-40.31-47.618-40.31-78.291C333.612,115.534,351.695,97.628,373.926,97.628z"/>
</g>
<g>
</g>
<g>
</g>
<g>
</g>
<g>
</g>
<g>
</g>
<g>
</g>
<g>
</g>
<g>
</g>
<g>
</g>
<g>
</g>
<g>
</g>
<g>
</g>
<g>
</g>
<g>
</g>
<g>
</g>
</svg>
