<?xml version="1.0" encoding="iso-8859-1"?>
<!-- Generator: Adobe Illustrator 19.0.0, SVG Export Plug-In . SVG Version: 6.00 Build 0)  -->
<svg version="1.1" id="Layer_1" xmlns="http://www.w3.org/2000/svg" xmlns:xlink="http://www.w3.org/1999/xlink" x="0px" y="0px"
	 viewBox="0 0 512.001 512.001" style="enable-background:new 0 0 512.001 512.001;" xml:space="preserve">
<path style="fill:#4FC0E8;" d="M512.001,256.006c0,141.395-114.606,255.998-255.996,255.994
	C114.606,512.004,0.001,397.402,0.001,256.006C-0.007,114.61,114.606,0,256.005,0C397.395,0,512.001,114.614,512.001,256.006z"/>
<path style="fill:#3DAED9;" d="M512.001,256.005c0-8.634-0.442-17.164-1.276-25.578c-0.02-0.02-0.041-0.041-0.061-0.061
	c-0.491-0.503-102.067-102.079-102.569-102.569c-14.928-15.313-35.739-24.865-58.762-24.865c-45.289,0-82.133,36.845-82.133,82.133
	c0,2.97,0.194,5.892,0.503,8.781c-0.205-0.204-0.46-0.352-0.669-0.553c-0.487-0.507-96.114-96.135-96.623-96.623
	c-9.518-9.905-22.825-16.139-37.612-16.139c-28.817,0-52.267,23.446-52.267,52.267c0,13.806,5.476,26.269,14.255,35.605
	c0.461,0.531,30.282,30.282,30.545,30.572v60.756H104.13c-14.116,0-23.596,10.208-23.596,25.397v2.34
	c0,7.929,2.736,14.294,7.437,18.581c0.469,0.526,43.197,43.228,43.246,43.281h-12.153c-21.248,0-38.529,17.281-38.529,38.529v2.486
	c0,11.714,4.983,22.235,12.873,29.732c0.485,0.512,76.788,76.815,77.299,77.299c0.006,0.006,0.013,0.013,0.019,0.019
	c26.682,9.424,55.371,14.603,85.281,14.602C397.395,512.004,512.001,397.401,512.001,256.005z"/>
<path style="fill:#F4F6F9;" d="M431.467,185.067c0-45.289-36.845-82.133-82.133-82.133s-82.133,36.845-82.133,82.133
	c0,42.768,32.869,77.966,74.667,81.755v149.712H121.652c-14.437,0-26.185-11.747-26.185-26.185v-2.486
	c0-13.008,10.588-23.596,23.596-23.596h125.606c17.361,0,28.867-11.66,29.918-29.954c0.051-0.357,0.08-0.715,0.08-1.087v-1.684
	c0-0.342-0.022-0.671-0.066-0.999c-0.992-19.847-13.023-33.476-29.933-33.476H104.589c-6.395,0-9.122-2.873-9.122-9.596v-2.34
	c0-6.942,2.916-10.464,8.662-10.464h28.671c4.127,0,7.467-3.34,7.467-7.467v-82.73c25.284-3.643,44.8-25.391,44.8-51.67
	c0-28.82-23.45-52.267-52.267-52.267s-52.267,23.446-52.267,52.267c0,26.278,19.516,48.028,44.8,51.67v75.264H104.13
	c-14.116,0-23.596,10.208-23.596,25.397v2.34c0,14.905,9.443,24.529,24.055,24.529h140.08c11.499,0,14.846,12.476,15.057,20.423
	c-0.197,7.919-3.055,16.91-15.057,16.91H119.063c-21.248,0-38.529,17.281-38.529,38.529v2.486c0,22.67,18.448,41.118,41.118,41.118
	h227.682c4.127,0,7.467-3.34,7.467-7.467V266.821C398.598,263.033,431.467,227.835,431.467,185.067z M95.467,132.8
	c0-20.585,16.749-37.333,37.333-37.333s37.333,16.749,37.333,37.333s-16.749,37.333-37.333,37.333S95.467,153.385,95.467,132.8z
	 M349.334,252.267c-37.056,0-67.2-30.147-67.2-67.2s30.144-67.2,67.2-67.2s67.2,30.147,67.2,67.2S386.39,252.267,349.334,252.267z"
	/>
<g>
</g>
<g>
</g>
<g>
</g>
<g>
</g>
<g>
</g>
<g>
</g>
<g>
</g>
<g>
</g>
<g>
</g>
<g>
</g>
<g>
</g>
<g>
</g>
<g>
</g>
<g>
</g>
<g>
</g>
</svg>
